<svg xmlns="http://www.w3.org/2000/svg" viewBox="0 11.579999923706055 143.5399932861328 75.21504974365234" data-asc="0.96875" width="143.5399932861328" height="75.21504974365234">
  <defs/>
  <g fill="currentColor">
    <g transform="translate(0, 0)">
      <path d="M13.99 48.44L0 48.44L0 12.07L13.85 12.07Q19.46 12.07 23.55 14.25Q27.65 16.42 29.87 20.50Q32.10 24.57 32.10 30.26Q32.10 35.94 29.88 40.01Q27.66 44.09 23.60 46.26Q19.53 48.44 13.99 48.44M9.87 40.06L13.64 40.06Q16.34 40.06 18.24 39.19Q20.15 38.32 21.16 36.19Q22.16 34.06 22.16 30.26Q22.16 26.46 21.14 24.33Q20.12 22.19 18.16 21.32Q16.19 20.45 13.35 20.45L9.87 20.45L9.87 40.06ZM36.65 48.44L36.65 12.07L62.86 12.07L62.86 20.03L46.52 20.03L46.52 26.28L61.51 26.28L61.51 34.23L46.52 34.23L46.52 40.48L62.78 40.48L62.78 48.44L36.65 48.44ZM99.22 12.07L99.22 48.44L90.98 48.44L77.84 29.33L77.63 29.33L77.63 48.44L67.76 48.44L67.76 12.07L76.14 12.07L89.06 31.11L89.35 31.11L89.35 12.07L99.22 12.07ZM139.13 30.26Q139.13 36.33 136.77 40.49Q134.41 44.66 130.40 46.80Q126.38 48.93 121.45 48.93Q116.48 48.93 112.47 46.78Q108.47 44.62 106.12 40.46Q103.76 36.29 103.76 30.26Q103.76 24.18 106.12 20.02Q108.47 15.86 112.47 13.72Q116.48 11.58 121.45 11.58Q126.38 11.58 130.40 13.72Q134.41 15.86 136.77 20.02Q139.13 24.18 139.13 30.26M128.98 30.26Q128.98 26.99 128.12 24.74Q127.25 22.50 125.58 21.33Q123.90 20.17 121.45 20.17Q119.00 20.17 117.32 21.33Q115.64 22.50 114.78 24.74Q113.92 26.99 113.92 30.26Q113.92 33.52 114.78 35.77Q115.64 38.01 117.32 39.18Q119.00 40.34 121.45 40.34Q123.90 40.34 125.58 39.18Q127.25 38.01 128.12 35.77Q128.98 33.52 128.98 30.26Z"/>
    </g>
    <g transform="translate(0, 37.86505681818182)">
      <path d="M4000 48.44L0 12.07L15.77 12.07Q19.92 12.07 22.75 13.19Q25.59 14.31 27.03 16.35Q28.48 18.39 28.48 21.16Q28.48 23.17 27.60 24.82Q26.72 26.47 25.14 27.58Q23.56 28.69 21.45 29.12L21.45 29.47Q23.79 29.56 25.71 30.66Q27.63 31.75 28.76 33.66Q29.90 35.56 29.90 38.14Q29.90 41.12 28.35 43.45Q26.79 45.77 23.93 47.11Q21.08 48.44 17.12 48.44L0 48.44M9.87 40.55L14.49 40.55Q16.97 40.55 18.22 39.62Q19.46 38.69 19.46 36.86Q19.46 35.58 18.87 34.69Q18.29 33.81 17.21 33.35Q16.14 32.88 14.63 32.88L9.87 32.88L9.87 40.55M9.87 26.78L13.92 26.78Q15.22 26.78 16.21 26.37Q17.21 25.96 17.76 25.19Q18.32 24.41 18.32 23.30Q18.32 21.61 17.12 20.71Q15.91 19.82 14.06 19.82L9.87 19.82L9.87 26.78ZM68.61 30.26Q68.61 36.33 66.25 40.49Q63.88 44.66 59.87 46.80Q55.86 48.93 50.92 48.93Q45.95 48.93 41.95 46.78Q37.94 44.62 35.59 40.46Q33.24 36.29 33.24 30.26Q33.24 24.18 35.59 20.02Q37.94 15.86 41.95 13.72Q45.95 11.58 50.92 11.58Q55.86 11.58 59.87 13.72Q63.88 15.86 66.25 20.02Q68.61 24.18 68.61 30.26M58.45 30.26Q58.45 26.99 57.59 24.74Q56.73 22.50 55.05 21.33Q53.37 20.17 50.92 20.17Q48.47 20.17 46.80 21.33Q45.12 22.50 44.26 24.74Q43.39 26.99 43.39 30.26Q43.39 33.52 44.26 35.77Q45.12 38.01 46.80 39.18Q48.47 40.34 50.92 40.34Q53.37 40.34 55.05 39.18Q56.73 38.01 57.59 35.77Q58.45 33.52 58.45 30.26ZM108.38 30.26Q108.38 36.33 106.02 40.49Q103.66 44.66 99.64 46.80Q95.63 48.93 90.70 48.93Q85.72 48.93 81.72 46.78Q77.72 44.62 75.36 40.46Q73.01 36.29 73.01 30.26Q73.01 24.18 75.36 20.02Q77.72 15.86 81.72 13.72Q85.72 11.58 90.70 11.58Q95.63 11.58 99.64 13.72Q103.66 15.86 106.02 20.02Q108.38 24.18 108.38 30.26M98.22 30.26Q98.22 26.99 97.36 24.74Q96.50 22.50 94.82 21.33Q93.15 20.17 90.70 20.17Q88.25 20.17 86.57 21.33Q84.89 22.50 84.03 24.74Q83.17 26.99 83.17 30.26Q83.17 33.52 84.03 35.77Q84.89 38.01 86.57 39.18Q88.25 40.34 90.70 40.34Q93.15 40.34 94.82 39.18Q96.50 38.01 97.36 35.77Q98.22 33.52 98.22 30.26ZM111.93 20.03L111.93 12.07L143.54 12.07L143.54 20.03L132.60 20.03L132.60 48.44L122.87 46.44L122.87 20.03L111.93 20.03Z"/>
    </g>
  </g>
</svg>